<svg width="1050" height="1000" viewBox="0 0 1050 1000" fill="none" xmlns="http://www.w3.org/2000/svg">
<path d="M1049.18 765.079V1000H932.254V765.079H1049.18ZM0 0H660.478V117.46H445.586V271.429C480.348 250.265 517.216 239.683 556.192 239.683C619.396 239.683 673.119 266.138 717.361 319.048C761.604 370.9 783.725 429.101 783.725 493.651C783.725 552.91 764.237 604.233 725.262 647.619H932.254V0H1049.18V765.079H323.918V647.619H534.071C612.022 621.164 650.997 562.963 650.997 473.016C650.997 444.444 637.83 421.164 611.495 403.175C586.214 385.185 558.826 376.191 529.33 376.191C493.515 376.191 465.6 389.947 445.586 417.46V563.492H323.918V117.46H118.507V765.079H0V0Z" fill="#F38BA8"/>
</svg>
